<?xml version="1.0" encoding="UTF-8" standalone="no"?>
<!DOCTYPE svg PUBLIC "-//W3C//DTD SVG 1.1//EN"
 "http://www.w3.org/Graphics/SVG/1.1/DTD/svg11.dtd">
<!-- Generated by graphviz version 2.40.1 (20161225.0304)
 -->
<!-- Title: dependencies Pages: 1 -->
<svg width="504pt" height="211pt"
 viewBox="0.00 0.00 504.00 211.00" xmlns="http://www.w3.org/2000/svg" xmlns:xlink="http://www.w3.org/1999/xlink">
<g id="graph0" class="graph" transform="scale(1 1) rotate(0) translate(4 207)">
<title>dependencies</title>
<polygon fill="#ffffff" stroke="transparent" points="-4,4 -4,-207 500,-207 500,4 -4,4"/>
<text text-anchor="start" x="227.0091" y="-42.4" font-family="sans-serif" font-weight="bold" font-size="14.00" fill="#000000">Legend</text>
<polygon fill="#ffffb3" stroke="transparent" points="14,-10 14,-30 34,-30 34,-10 14,-10"/>
<text text-anchor="start" x="37.629" y="-15.4" font-family="sans-serif" font-size="14.00" fill="#000000"> &#160;Declarations</text>
<polygon fill="#8dd3c7" stroke="transparent" points="127,-10 127,-30 147,-30 147,-10 127,-10"/>
<text text-anchor="start" x="150.7251" y="-15.4" font-family="sans-serif" font-size="14.00" fill="#000000"> &#160;Module</text>
<polygon fill="#80b1d3" stroke="transparent" points="213,-10 213,-30 233,-30 233,-10 213,-10"/>
<text text-anchor="start" x="236.7812" y="-15.4" font-family="sans-serif" font-size="14.00" fill="#000000"> &#160;Bootstrap</text>
<polygon fill="#fdb462" stroke="transparent" points="310,-10 310,-30 330,-30 330,-10 310,-10"/>
<text text-anchor="start" x="333.6732" y="-15.4" font-family="sans-serif" font-size="14.00" fill="#000000"> &#160;Providers</text>
<polygon fill="#fb8072" stroke="transparent" points="406,-10 406,-30 426,-30 426,-10 406,-10"/>
<text text-anchor="start" x="429.7258" y="-15.4" font-family="sans-serif" font-size="14.00" fill="#000000"> &#160;Exports</text>
<g id="clust1" class="cluster">
<title>cluster_PersonalModule</title>
<polygon fill="none" stroke="#000000" stroke-dasharray="1,5" points="20.5,-70 20.5,-195 475.5,-195 475.5,-70 20.5,-70"/>
</g>
<g id="clust2" class="cluster">
<title>cluster_PersonalModule_declarations</title>
<polygon fill="none" stroke="#000000" points="321.5,-78 321.5,-130 467.5,-130 467.5,-78 321.5,-78"/>
</g>
<g id="clust4" class="cluster">
<title>cluster_PersonalModule_imports</title>
<polygon fill="none" stroke="#000000" points="28.5,-78 28.5,-130 313.5,-130 313.5,-78 28.5,-78"/>
</g>
<!-- PersonalComponent -->
<g id="node1" class="node">
<title>PersonalComponent</title>
<polygon fill="#ffffb3" stroke="#000000" points="459.0408,-122 329.9592,-122 329.9592,-86 459.0408,-86 459.0408,-122"/>
<text text-anchor="middle" x="394.5" y="-99.8" font-family="Times,serif" font-size="14.00" fill="#000000">PersonalComponent</text>
</g>
<!-- PersonalModule -->
<g id="node2" class="node">
<title>PersonalModule</title>
<polygon fill="#8dd3c7" stroke="#000000" points="283.2577,-187 280.2577,-191 259.2577,-191 256.2577,-187 175.7423,-187 175.7423,-151 283.2577,-151 283.2577,-187"/>
<text text-anchor="middle" x="229.5" y="-164.8" font-family="Times,serif" font-size="14.00" fill="#000000">PersonalModule</text>
</g>
<!-- PersonalComponent&#45;&gt;PersonalModule -->
<g id="edge1" class="edge">
<title>PersonalComponent&#45;&gt;PersonalModule</title>
<path fill="none" stroke="#000000" d="M394.5,-122.1061C394.5,-141.3391 394.5,-169 394.5,-169 394.5,-169 293.5272,-169 293.5272,-169"/>
<polygon fill="#000000" stroke="#000000" points="293.5272,-165.5001 283.5272,-169 293.5271,-172.5001 293.5272,-165.5001"/>
</g>
<!-- PersonalRoutingModule -->
<g id="node3" class="node">
<title>PersonalRoutingModule</title>
<polygon fill="#8dd3c7" stroke="#000000" points="305.8753,-122 302.8753,-126 281.8753,-126 278.8753,-122 153.1247,-122 153.1247,-86 305.8753,-86 305.8753,-122"/>
<text text-anchor="middle" x="229.5" y="-99.8" font-family="Times,serif" font-size="14.00" fill="#000000">PersonalRoutingModule</text>
</g>
<!-- PersonalRoutingModule&#45;&gt;PersonalModule -->
<g id="edge2" class="edge">
<title>PersonalRoutingModule&#45;&gt;PersonalModule</title>
<path fill="none" stroke="#000000" d="M229.5,-122.1061C229.5,-122.1061 229.5,-140.991 229.5,-140.991"/>
<polygon fill="#000000" stroke="#000000" points="226.0001,-140.9909 229.5,-150.991 233.0001,-140.991 226.0001,-140.9909"/>
</g>
<!-- SharedModule -->
<g id="node4" class="node">
<title>SharedModule</title>
<polygon fill="#8dd3c7" stroke="#000000" points="134.9231,-122 131.9231,-126 110.9231,-126 107.9231,-122 36.0769,-122 36.0769,-86 134.9231,-86 134.9231,-122"/>
<text text-anchor="middle" x="85.5" y="-99.8" font-family="Times,serif" font-size="14.00" fill="#000000">SharedModule</text>
</g>
<!-- SharedModule&#45;&gt;PersonalModule -->
<g id="edge3" class="edge">
<title>SharedModule&#45;&gt;PersonalModule</title>
<path fill="none" stroke="#000000" d="M85.5,-122.1061C85.5,-141.3391 85.5,-169 85.5,-169 85.5,-169 165.47,-169 165.47,-169"/>
<polygon fill="#000000" stroke="#000000" points="165.4701,-172.5001 175.47,-169 165.47,-165.5001 165.4701,-172.5001"/>
</g>
</g>
</svg>
