<?xml version="1.0" encoding="UTF-8" standalone="no"?>
<!DOCTYPE svg PUBLIC "-//W3C//DTD SVG 1.1//EN"
 "http://www.w3.org/Graphics/SVG/1.1/DTD/svg11.dtd">
<!-- Generated by graphviz version 2.40.1 (20161225.0304)
 -->
<!-- Title: dependencies Pages: 1 -->
<svg width="925pt" height="211pt"
 viewBox="0.00 0.00 925.00 211.00" xmlns="http://www.w3.org/2000/svg" xmlns:xlink="http://www.w3.org/1999/xlink">
<g id="graph0" class="graph" transform="scale(1 1) rotate(0) translate(4 207)">
<title>dependencies</title>
<polygon fill="#ffffff" stroke="transparent" points="-4,4 -4,-207 921,-207 921,4 -4,4"/>
<text text-anchor="start" x="437.5091" y="-42.4" font-family="sans-serif" font-weight="bold" font-size="14.00" fill="#000000">Legend</text>
<polygon fill="#ffffb3" stroke="transparent" points="224.5,-10 224.5,-30 244.5,-30 244.5,-10 224.5,-10"/>
<text text-anchor="start" x="248.129" y="-15.4" font-family="sans-serif" font-size="14.00" fill="#000000"> &#160;Declarations</text>
<polygon fill="#8dd3c7" stroke="transparent" points="337.5,-10 337.5,-30 357.5,-30 357.5,-10 337.5,-10"/>
<text text-anchor="start" x="361.2251" y="-15.4" font-family="sans-serif" font-size="14.00" fill="#000000"> &#160;Module</text>
<polygon fill="#80b1d3" stroke="transparent" points="423.5,-10 423.5,-30 443.5,-30 443.5,-10 423.5,-10"/>
<text text-anchor="start" x="447.2812" y="-15.4" font-family="sans-serif" font-size="14.00" fill="#000000"> &#160;Bootstrap</text>
<polygon fill="#fdb462" stroke="transparent" points="520.5,-10 520.5,-30 540.5,-30 540.5,-10 520.5,-10"/>
<text text-anchor="start" x="544.1732" y="-15.4" font-family="sans-serif" font-size="14.00" fill="#000000"> &#160;Providers</text>
<polygon fill="#fb8072" stroke="transparent" points="616.5,-10 616.5,-30 636.5,-30 636.5,-10 616.5,-10"/>
<text text-anchor="start" x="640.2258" y="-15.4" font-family="sans-serif" font-size="14.00" fill="#000000"> &#160;Exports</text>
<g id="clust1" class="cluster">
<title>cluster_CarrelloModule</title>
<polygon fill="none" stroke="#000000" stroke-dasharray="1,5" points="8,-70 8,-195 909,-195 909,-70 8,-70"/>
</g>
<g id="clust2" class="cluster">
<title>cluster_CarrelloModule_declarations</title>
<polygon fill="none" stroke="#000000" points="306,-78 306,-130 901,-130 901,-78 306,-78"/>
</g>
<g id="clust7" class="cluster">
<title>cluster_CarrelloModule_imports</title>
<polygon fill="none" stroke="#000000" points="16,-78 16,-130 298,-130 298,-78 16,-78"/>
</g>
<!-- CarrelloComponent -->
<g id="node1" class="node">
<title>CarrelloComponent</title>
<polygon fill="#ffffb3" stroke="#000000" points="892.7008,-122 765.2992,-122 765.2992,-86 892.7008,-86 892.7008,-122"/>
<text text-anchor="middle" x="829" y="-99.8" font-family="Times,serif" font-size="14.00" fill="#000000">CarrelloComponent</text>
</g>
<!-- CarrelloModule -->
<g id="node5" class="node">
<title>CarrelloModule</title>
<polygon fill="#8dd3c7" stroke="#000000" points="507.9188,-187 504.9188,-191 483.9188,-191 480.9188,-187 402.0812,-187 402.0812,-151 507.9188,-151 507.9188,-187"/>
<text text-anchor="middle" x="455" y="-164.8" font-family="Times,serif" font-size="14.00" fill="#000000">CarrelloModule</text>
</g>
<!-- CarrelloComponent&#45;&gt;CarrelloModule -->
<g id="edge1" class="edge">
<title>CarrelloComponent&#45;&gt;CarrelloModule</title>
<path fill="none" stroke="#000000" d="M829,-122.2843C829,-143.3211 829,-175 829,-175 829,-175 517.7918,-175 517.7918,-175"/>
<polygon fill="#000000" stroke="#000000" points="517.7919,-171.5001 507.7918,-175 517.7918,-178.5001 517.7919,-171.5001"/>
</g>
<!-- DettaglioComponent -->
<g id="node2" class="node">
<title>DettaglioComponent</title>
<polygon fill="#ffffb3" stroke="#000000" points="747.9313,-122 614.0687,-122 614.0687,-86 747.9313,-86 747.9313,-122"/>
<text text-anchor="middle" x="681" y="-99.8" font-family="Times,serif" font-size="14.00" fill="#000000">DettaglioComponent</text>
</g>
<!-- DettaglioComponent&#45;&gt;CarrelloModule -->
<g id="edge2" class="edge">
<title>DettaglioComponent&#45;&gt;CarrelloModule</title>
<path fill="none" stroke="#000000" d="M681,-122.0225C681,-139.3734 681,-163 681,-163 681,-163 517.987,-163 517.987,-163"/>
<polygon fill="#000000" stroke="#000000" points="517.987,-159.5001 507.987,-163 517.9869,-166.5001 517.987,-159.5001"/>
</g>
<!-- IndirizzoComponent -->
<g id="node3" class="node">
<title>IndirizzoComponent</title>
<polygon fill="#ffffb3" stroke="#000000" points="595.8641,-122 464.1359,-122 464.1359,-86 595.8641,-86 595.8641,-122"/>
<text text-anchor="middle" x="530" y="-99.8" font-family="Times,serif" font-size="14.00" fill="#000000">IndirizzoComponent</text>
</g>
<!-- IndirizzoComponent&#45;&gt;CarrelloModule -->
<g id="edge3" class="edge">
<title>IndirizzoComponent&#45;&gt;CarrelloModule</title>
<path fill="none" stroke="#000000" d="M485.8885,-122.1061C485.8885,-122.1061 485.8885,-140.991 485.8885,-140.991"/>
<polygon fill="#000000" stroke="#000000" points="482.3886,-140.9909 485.8885,-150.991 489.3886,-140.991 482.3886,-140.9909"/>
</g>
<!-- ModificaComponent -->
<g id="node4" class="node">
<title>ModificaComponent</title>
<polygon fill="#ffffb3" stroke="#000000" points="446.1485,-122 313.8515,-122 313.8515,-86 446.1485,-86 446.1485,-122"/>
<text text-anchor="middle" x="380" y="-99.8" font-family="Times,serif" font-size="14.00" fill="#000000">ModificaComponent</text>
</g>
<!-- ModificaComponent&#45;&gt;CarrelloModule -->
<g id="edge4" class="edge">
<title>ModificaComponent&#45;&gt;CarrelloModule</title>
<path fill="none" stroke="#000000" d="M424.3075,-122.1061C424.3075,-122.1061 424.3075,-140.991 424.3075,-140.991"/>
<polygon fill="#000000" stroke="#000000" points="420.8076,-140.9909 424.3075,-150.991 427.8076,-140.991 420.8076,-140.9909"/>
</g>
<!-- CarrelloRoutingModule -->
<g id="node6" class="node">
<title>CarrelloRoutingModule</title>
<polygon fill="#8dd3c7" stroke="#000000" points="290.0365,-122 287.0365,-126 266.0365,-126 263.0365,-122 139.9635,-122 139.9635,-86 290.0365,-86 290.0365,-122"/>
<text text-anchor="middle" x="215" y="-99.8" font-family="Times,serif" font-size="14.00" fill="#000000">CarrelloRoutingModule</text>
</g>
<!-- CarrelloRoutingModule&#45;&gt;CarrelloModule -->
<g id="edge5" class="edge">
<title>CarrelloRoutingModule&#45;&gt;CarrelloModule</title>
<path fill="none" stroke="#000000" d="M215,-122.0225C215,-139.3734 215,-163 215,-163 215,-163 392.0339,-163 392.0339,-163"/>
<polygon fill="#000000" stroke="#000000" points="392.0339,-166.5001 402.0339,-163 392.0338,-159.5001 392.0339,-166.5001"/>
</g>
<!-- SharedModule -->
<g id="node7" class="node">
<title>SharedModule</title>
<polygon fill="#8dd3c7" stroke="#000000" points="122.4231,-122 119.4231,-126 98.4231,-126 95.4231,-122 23.5769,-122 23.5769,-86 122.4231,-86 122.4231,-122"/>
<text text-anchor="middle" x="73" y="-99.8" font-family="Times,serif" font-size="14.00" fill="#000000">SharedModule</text>
</g>
<!-- SharedModule&#45;&gt;CarrelloModule -->
<g id="edge6" class="edge">
<title>SharedModule&#45;&gt;CarrelloModule</title>
<path fill="none" stroke="#000000" d="M73,-122.2843C73,-143.3211 73,-175 73,-175 73,-175 392.2856,-175 392.2856,-175"/>
<polygon fill="#000000" stroke="#000000" points="392.2856,-178.5001 402.2856,-175 392.2856,-171.5001 392.2856,-178.5001"/>
</g>
</g>
</svg>
