<?xml version="1.0" encoding="UTF-8" standalone="no"?>
<!DOCTYPE svg PUBLIC "-//W3C//DTD SVG 1.1//EN"
 "http://www.w3.org/Graphics/SVG/1.1/DTD/svg11.dtd">
<!-- Generated by graphviz version 2.40.1 (20161225.0304)
 -->
<!-- Title: dependencies Pages: 1 -->
<svg width="3114pt" height="360pt"
 viewBox="0.00 0.00 3114.00 360.00" xmlns="http://www.w3.org/2000/svg" xmlns:xlink="http://www.w3.org/1999/xlink">
<g id="graph0" class="graph" transform="scale(1 1) rotate(0) translate(4 356)">
<title>dependencies</title>
<polygon fill="#ffffff" stroke="transparent" points="-4,4 -4,-356 3110,-356 3110,4 -4,4"/>
<text text-anchor="start" x="1532.0091" y="-42.4" font-family="sans-serif" font-weight="bold" font-size="14.00" fill="#000000">Legend</text>
<polygon fill="#ffffb3" stroke="transparent" points="1319,-10 1319,-30 1339,-30 1339,-10 1319,-10"/>
<text text-anchor="start" x="1342.629" y="-15.4" font-family="sans-serif" font-size="14.00" fill="#000000"> &#160;Declarations</text>
<polygon fill="#8dd3c7" stroke="transparent" points="1432,-10 1432,-30 1452,-30 1452,-10 1432,-10"/>
<text text-anchor="start" x="1455.7251" y="-15.4" font-family="sans-serif" font-size="14.00" fill="#000000"> &#160;Module</text>
<polygon fill="#80b1d3" stroke="transparent" points="1518,-10 1518,-30 1538,-30 1538,-10 1518,-10"/>
<text text-anchor="start" x="1541.7812" y="-15.4" font-family="sans-serif" font-size="14.00" fill="#000000"> &#160;Bootstrap</text>
<polygon fill="#fdb462" stroke="transparent" points="1615,-10 1615,-30 1635,-30 1635,-10 1615,-10"/>
<text text-anchor="start" x="1638.6732" y="-15.4" font-family="sans-serif" font-size="14.00" fill="#000000"> &#160;Providers</text>
<polygon fill="#fb8072" stroke="transparent" points="1711,-10 1711,-30 1731,-30 1731,-10 1711,-10"/>
<text text-anchor="start" x="1734.7258" y="-15.4" font-family="sans-serif" font-size="14.00" fill="#000000"> &#160;Exports</text>
<g id="clust1" class="cluster">
<title>cluster_AppModule</title>
<polygon fill="none" stroke="#000000" stroke-dasharray="1,5" points="88,-146 88,-344 615,-344 615,-146 88,-146"/>
</g>
<g id="clust2" class="cluster">
<title>cluster_AppModule_declarations</title>
<polygon fill="none" stroke="#000000" points="353,-154 353,-206 607,-206 607,-154 353,-154"/>
</g>
<g id="clust5" class="cluster">
<title>cluster_AppModule_imports</title>
<polygon fill="none" stroke="#000000" points="96,-154 96,-206 345,-206 345,-154 96,-154"/>
</g>
<g id="clust7" class="cluster">
<title>cluster_AppModule_bootstrap</title>
<polygon fill="none" stroke="#000000" points="283,-284 283,-336 407,-336 407,-284 283,-284"/>
</g>
<g id="clust15" class="cluster">
<title>cluster_AutenticazioneModule</title>
<polygon fill="none" stroke="#000000" stroke-dasharray="1,5" points="965,-70 965,-206 2078,-206 2078,-70 965,-70"/>
</g>
<g id="clust16" class="cluster">
<title>cluster_AutenticazioneModule_declarations</title>
<polygon fill="none" stroke="#000000" points="1249,-78 1249,-130 1740,-130 1740,-78 1249,-78"/>
</g>
<g id="clust20" class="cluster">
<title>cluster_AutenticazioneModule_imports</title>
<polygon fill="none" stroke="#000000" points="1748,-78 1748,-130 2070,-130 2070,-78 1748,-78"/>
</g>
<g id="clust23" class="cluster">
<title>cluster_AutenticazioneModule_providers</title>
<polygon fill="none" stroke="#000000" points="973,-78 973,-130 1241,-130 1241,-78 973,-78"/>
</g>
<g id="clust30" class="cluster">
<title>cluster_CarrelloModule</title>
<polygon fill="none" stroke="#000000" stroke-dasharray="1,5" points="623,-70 623,-206 957,-206 957,-70 623,-70"/>
</g>
<g id="clust31" class="cluster">
<title>cluster_CarrelloModule_declarations</title>
<polygon fill="none" stroke="#000000" points="805,-78 805,-130 949,-130 949,-78 805,-78"/>
</g>
<g id="clust33" class="cluster">
<title>cluster_CarrelloModule_imports</title>
<polygon fill="none" stroke="#000000" points="631,-78 631,-130 797,-130 797,-78 631,-78"/>
</g>
<g id="clust43" class="cluster">
<title>cluster_CoreModule</title>
<polygon fill="none" stroke="#000000" stroke-dasharray="1,5" points="8,-70 8,-138 286,-138 286,-70 8,-70"/>
</g>
<g id="clust48" class="cluster">
<title>cluster_CoreModule_providers</title>
<polygon fill="none" stroke="#000000" points="16,-78 16,-130 278,-130 278,-78 16,-78"/>
</g>
<g id="clust49" class="cluster">
<title>cluster_HomeModule</title>
<polygon fill="none" stroke="#000000" stroke-dasharray="1,5" points="2086,-70 2086,-206 2396,-206 2396,-70 2086,-70"/>
</g>
<g id="clust50" class="cluster">
<title>cluster_HomeModule_declarations</title>
<polygon fill="none" stroke="#000000" points="2256,-78 2256,-130 2388,-130 2388,-78 2256,-78"/>
</g>
<g id="clust52" class="cluster">
<title>cluster_HomeModule_imports</title>
<polygon fill="none" stroke="#000000" points="2094,-78 2094,-130 2248,-130 2248,-78 2094,-78"/>
</g>
<g id="clust62" class="cluster">
<title>cluster_NotfoundModule</title>
<polygon fill="none" stroke="#000000" stroke-dasharray="1,5" points="2404,-70 2404,-206 2752,-206 2752,-70 2404,-70"/>
</g>
<g id="clust63" class="cluster">
<title>cluster_NotfoundModule_declarations</title>
<polygon fill="none" stroke="#000000" points="2594,-78 2594,-130 2744,-130 2744,-78 2594,-78"/>
</g>
<g id="clust65" class="cluster">
<title>cluster_NotfoundModule_imports</title>
<polygon fill="none" stroke="#000000" points="2412,-78 2412,-130 2586,-130 2586,-78 2412,-78"/>
</g>
<g id="clust75" class="cluster">
<title>cluster_PersonalModule</title>
<polygon fill="none" stroke="#000000" stroke-dasharray="1,5" points="2760,-70 2760,-206 3098,-206 3098,-70 2760,-70"/>
</g>
<g id="clust76" class="cluster">
<title>cluster_PersonalModule_declarations</title>
<polygon fill="none" stroke="#000000" points="2944,-78 2944,-130 3090,-130 3090,-78 2944,-78"/>
</g>
<g id="clust78" class="cluster">
<title>cluster_PersonalModule_imports</title>
<polygon fill="none" stroke="#000000" points="2768,-78 2768,-130 2936,-130 2936,-78 2768,-78"/>
</g>
<!-- AppComponent -->
<g id="node1" class="node">
<title>AppComponent</title>
<polygon fill="#ffffb3" stroke="#000000" points="598.9399,-198 493.0601,-198 493.0601,-162 598.9399,-162 598.9399,-198"/>
<text text-anchor="middle" x="546" y="-175.8" font-family="Times,serif" font-size="14.00" fill="#000000">AppComponent</text>
</g>
<!-- AppModule -->
<g id="node3" class="node">
<title>AppModule</title>
<polygon fill="#8dd3c7" stroke="#000000" points="386.6571,-263 383.6571,-267 362.6571,-267 359.6571,-263 303.3429,-263 303.3429,-227 386.6571,-227 386.6571,-263"/>
<text text-anchor="middle" x="345" y="-240.8" font-family="Times,serif" font-size="14.00" fill="#000000">AppModule</text>
</g>
<!-- AppComponent&#45;&gt;AppModule -->
<g id="edge1" class="edge">
<title>AppComponent&#45;&gt;AppModule</title>
<path fill="none" stroke="#000000" d="M546,-198.1061C546,-217.3391 546,-245 546,-245 546,-245 397.1362,-245 397.1362,-245"/>
<polygon fill="#000000" stroke="#000000" points="397.1362,-241.5001 387.1362,-245 397.1362,-248.5001 397.1362,-241.5001"/>
</g>
<!-- MenuComponent -->
<g id="node2" class="node">
<title>MenuComponent</title>
<polygon fill="#ffffb3" stroke="#000000" points="474.9916,-198 361.0084,-198 361.0084,-162 474.9916,-162 474.9916,-198"/>
<text text-anchor="middle" x="418" y="-175.8" font-family="Times,serif" font-size="14.00" fill="#000000">MenuComponent</text>
</g>
<!-- MenuComponent&#45;&gt;AppModule -->
<g id="edge2" class="edge">
<title>MenuComponent&#45;&gt;AppModule</title>
<path fill="none" stroke="#000000" d="M373.9162,-198.1061C373.9162,-198.1061 373.9162,-216.991 373.9162,-216.991"/>
<polygon fill="#000000" stroke="#000000" points="370.4163,-216.9909 373.9162,-226.991 377.4163,-216.991 370.4163,-216.9909"/>
</g>
<!-- AppComponent  -->
<g id="node6" class="node">
<title>AppComponent </title>
<polygon fill="#80b1d3" stroke="#000000" points="399.439,-328 290.561,-328 290.561,-292 399.439,-292 399.439,-328"/>
<text text-anchor="middle" x="345" y="-305.8" font-family="Times,serif" font-size="14.00" fill="#000000">AppComponent </text>
</g>
<!-- AppModule&#45;&gt;AppComponent  -->
<g id="edge5" class="edge">
<title>AppModule&#45;&gt;AppComponent </title>
<path fill="none" stroke="#000000" stroke-dasharray="1,5" d="M345,-263.1061C345,-263.1061 345,-281.991 345,-281.991"/>
<polygon fill="#000000" stroke="#000000" points="341.5001,-281.9909 345,-291.991 348.5001,-281.991 341.5001,-281.9909"/>
</g>
<!-- AppRoutingModule -->
<g id="node4" class="node">
<title>AppRoutingModule</title>
<polygon fill="#8dd3c7" stroke="#000000" points="337.2744,-198 334.2744,-202 313.2744,-202 310.2744,-198 208.7256,-198 208.7256,-162 337.2744,-162 337.2744,-198"/>
<text text-anchor="middle" x="273" y="-175.8" font-family="Times,serif" font-size="14.00" fill="#000000">AppRoutingModule</text>
</g>
<!-- AppRoutingModule&#45;&gt;AppModule -->
<g id="edge3" class="edge">
<title>AppRoutingModule&#45;&gt;AppModule</title>
<path fill="none" stroke="#000000" d="M320.2795,-198.1061C320.2795,-198.1061 320.2795,-216.991 320.2795,-216.991"/>
<polygon fill="#000000" stroke="#000000" points="316.7795,-216.9909 320.2795,-226.991 323.7795,-216.991 316.7795,-216.9909"/>
</g>
<!-- CoreModule -->
<g id="node5" class="node">
<title>CoreModule</title>
<polygon fill="#8dd3c7" stroke="#000000" points="190.2619,-198 187.2619,-202 166.2619,-202 163.2619,-198 103.7381,-198 103.7381,-162 190.2619,-162 190.2619,-198"/>
<text text-anchor="middle" x="147" y="-175.8" font-family="Times,serif" font-size="14.00" fill="#000000">CoreModule</text>
</g>
<!-- CoreModule&#45;&gt;AppModule -->
<g id="edge4" class="edge">
<title>CoreModule&#45;&gt;AppModule</title>
<path fill="none" stroke="#000000" d="M147,-198.1061C147,-217.3391 147,-245 147,-245 147,-245 293.0093,-245 293.0093,-245"/>
<polygon fill="#000000" stroke="#000000" points="293.0093,-248.5001 303.0093,-245 293.0093,-241.5001 293.0093,-248.5001"/>
</g>
<!-- AutenticazioneComponent -->
<g id="node7" class="node">
<title>AutenticazioneComponent</title>
<polygon fill="#ffffb3" stroke="#000000" points="1732.0744,-122 1565.9256,-122 1565.9256,-86 1732.0744,-86 1732.0744,-122"/>
<text text-anchor="middle" x="1649" y="-99.8" font-family="Times,serif" font-size="14.00" fill="#000000">AutenticazioneComponent</text>
</g>
<!-- AutenticazioneModule -->
<g id="node10" class="node">
<title>AutenticazioneModule</title>
<polygon fill="#8dd3c7" stroke="#000000" points="1642.2921,-198 1639.2921,-202 1618.2921,-202 1615.2921,-198 1497.7079,-198 1497.7079,-162 1642.2921,-162 1642.2921,-198"/>
<text text-anchor="middle" x="1570" y="-175.8" font-family="Times,serif" font-size="14.00" fill="#000000">AutenticazioneModule</text>
</g>
<!-- AutenticazioneComponent&#45;&gt;AutenticazioneModule -->
<g id="edge6" class="edge">
<title>AutenticazioneComponent&#45;&gt;AutenticazioneModule</title>
<path fill="none" stroke="#000000" d="M1604.0543,-122.0109C1604.0543,-122.0109 1604.0543,-151.855 1604.0543,-151.855"/>
<polygon fill="#000000" stroke="#000000" points="1600.5544,-151.8549 1604.0543,-161.855 1607.5544,-151.855 1600.5544,-151.8549"/>
</g>
<!-- LoginComponent -->
<g id="node8" class="node">
<title>LoginComponent</title>
<polygon fill="#ffffb3" stroke="#000000" points="1548.2758,-122 1433.7242,-122 1433.7242,-86 1548.2758,-86 1548.2758,-122"/>
<text text-anchor="middle" x="1491" y="-99.8" font-family="Times,serif" font-size="14.00" fill="#000000">LoginComponent</text>
</g>
<!-- LoginComponent&#45;&gt;AutenticazioneModule -->
<g id="edge7" class="edge">
<title>LoginComponent&#45;&gt;AutenticazioneModule</title>
<path fill="none" stroke="#000000" d="M1523.121,-122.0109C1523.121,-122.0109 1523.121,-151.855 1523.121,-151.855"/>
<polygon fill="#000000" stroke="#000000" points="1519.621,-151.8549 1523.121,-161.855 1526.621,-151.855 1519.621,-151.8549"/>
</g>
<!-- RegistrazioneComponent -->
<g id="node9" class="node">
<title>RegistrazioneComponent</title>
<polygon fill="#ffffb3" stroke="#000000" points="1415.3047,-122 1256.6953,-122 1256.6953,-86 1415.3047,-86 1415.3047,-122"/>
<text text-anchor="middle" x="1336" y="-99.8" font-family="Times,serif" font-size="14.00" fill="#000000">RegistrazioneComponent</text>
</g>
<!-- RegistrazioneComponent&#45;&gt;AutenticazioneModule -->
<g id="edge8" class="edge">
<title>RegistrazioneComponent&#45;&gt;AutenticazioneModule</title>
<path fill="none" stroke="#000000" d="M1336,-122.0267C1336,-142.7672 1336,-174 1336,-174 1336,-174 1487.5634,-174 1487.5634,-174"/>
<polygon fill="#000000" stroke="#000000" points="1487.5635,-177.5001 1497.5634,-174 1487.5634,-170.5001 1487.5635,-177.5001"/>
</g>
<!-- AutenticazioneRoutingModule -->
<g id="node11" class="node">
<title>AutenticazioneRoutingModule</title>
<polygon fill="#8dd3c7" stroke="#000000" points="1945.91,-122 1942.91,-126 1921.91,-126 1918.91,-122 1756.09,-122 1756.09,-86 1945.91,-86 1945.91,-122"/>
<text text-anchor="middle" x="1851" y="-99.8" font-family="Times,serif" font-size="14.00" fill="#000000">AutenticazioneRoutingModule</text>
</g>
<!-- AutenticazioneRoutingModule&#45;&gt;AutenticazioneModule -->
<g id="edge9" class="edge">
<title>AutenticazioneRoutingModule&#45;&gt;AutenticazioneModule</title>
<path fill="none" stroke="#000000" d="M1851,-122.308C1851,-142.1455 1851,-171 1851,-171 1851,-171 1652.3645,-171 1652.3645,-171"/>
<polygon fill="#000000" stroke="#000000" points="1652.3645,-167.5001 1642.3645,-171 1652.3644,-174.5001 1652.3645,-167.5001"/>
</g>
<!-- SharedModule -->
<g id="node12" class="node">
<title>SharedModule</title>
<polygon fill="#8dd3c7" stroke="#000000" points="2062.4231,-122 2059.4231,-126 2038.4231,-126 2035.4231,-122 1963.5769,-122 1963.5769,-86 2062.4231,-86 2062.4231,-122"/>
<text text-anchor="middle" x="2013" y="-99.8" font-family="Times,serif" font-size="14.00" fill="#000000">SharedModule</text>
</g>
<!-- SharedModule&#45;&gt;AutenticazioneModule -->
<g id="edge10" class="edge">
<title>SharedModule&#45;&gt;AutenticazioneModule</title>
<path fill="none" stroke="#000000" d="M2029.4037,-122.0109C2029.4037,-144.4852 2029.4037,-180 2029.4037,-180 2029.4037,-180 1652.2872,-180 1652.2872,-180"/>
<polygon fill="#000000" stroke="#000000" points="1652.2872,-176.5001 1642.2872,-180 1652.2872,-183.5001 1652.2872,-176.5001"/>
</g>
<!-- CarrelloModule -->
<g id="node15" class="node">
<title>CarrelloModule</title>
<polygon fill="#8dd3c7" stroke="#000000" points="929.9188,-198 926.9188,-202 905.9188,-202 902.9188,-198 824.0812,-198 824.0812,-162 929.9188,-162 929.9188,-198"/>
<text text-anchor="middle" x="877" y="-175.8" font-family="Times,serif" font-size="14.00" fill="#000000">CarrelloModule</text>
</g>
<!-- SharedModule&#45;&gt;CarrelloModule -->
<g id="edge14" class="edge">
<title>SharedModule&#45;&gt;CarrelloModule</title>
<path fill="none" stroke="#000000" d="M1980.1926,-122.207C1980.1926,-127.5549 1980.1926,-132 1980.1926,-132 1980.1926,-132 894.5697,-132 894.5697,-132 894.5697,-132 894.5697,-151.8533 894.5697,-151.8533"/>
<polygon fill="#000000" stroke="#000000" points="891.0698,-151.8532 894.5697,-161.8533 898.0698,-151.8533 891.0698,-151.8532"/>
</g>
<!-- HomeModule -->
<g id="node19" class="node">
<title>HomeModule</title>
<polygon fill="#8dd3c7" stroke="#000000" points="2217.7619,-198 2214.7619,-202 2193.7619,-202 2190.7619,-198 2124.2381,-198 2124.2381,-162 2217.7619,-162 2217.7619,-198"/>
<text text-anchor="middle" x="2171" y="-175.8" font-family="Times,serif" font-size="14.00" fill="#000000">HomeModule</text>
</g>
<!-- SharedModule&#45;&gt;HomeModule -->
<g id="edge18" class="edge">
<title>SharedModule&#45;&gt;HomeModule</title>
<path fill="none" stroke="#000000" d="M2045.8074,-122.0263C2045.8074,-146.9773 2045.8074,-189 2045.8074,-189 2045.8074,-189 2114.0267,-189 2114.0267,-189"/>
<polygon fill="#000000" stroke="#000000" points="2114.0267,-192.5001 2124.0267,-189 2114.0267,-185.5001 2114.0267,-192.5001"/>
</g>
<!-- NotfoundModule -->
<g id="node22" class="node">
<title>NotfoundModule</title>
<polygon fill="#8dd3c7" stroke="#000000" points="2555.7078,-198 2552.7078,-202 2531.7078,-202 2528.7078,-198 2442.2922,-198 2442.2922,-162 2555.7078,-162 2555.7078,-198"/>
<text text-anchor="middle" x="2499" y="-175.8" font-family="Times,serif" font-size="14.00" fill="#000000">NotfoundModule</text>
</g>
<!-- SharedModule&#45;&gt;NotfoundModule -->
<g id="edge21" class="edge">
<title>SharedModule&#45;&gt;NotfoundModule</title>
<path fill="none" stroke="#000000" d="M1996.5963,-122.1467C1996.5963,-135.7395 1996.5963,-152 1996.5963,-152 1996.5963,-152 2480.1321,-152 2480.1321,-152 2480.1321,-152 2480.1321,-152.9793 2480.1321,-152.9793"/>
<polygon fill="#000000" stroke="#000000" points="2476.6322,-151.793 2480.1321,-161.793 2483.6322,-151.7931 2476.6322,-151.793"/>
</g>
<!-- PersonalModule -->
<g id="node25" class="node">
<title>PersonalModule</title>
<polygon fill="#8dd3c7" stroke="#000000" points="2905.7577,-198 2902.7577,-202 2881.7577,-202 2878.7577,-198 2798.2423,-198 2798.2423,-162 2905.7577,-162 2905.7577,-198"/>
<text text-anchor="middle" x="2852" y="-175.8" font-family="Times,serif" font-size="14.00" fill="#000000">PersonalModule</text>
</g>
<!-- SharedModule&#45;&gt;PersonalModule -->
<g id="edge24" class="edge">
<title>SharedModule&#45;&gt;PersonalModule</title>
<path fill="none" stroke="#000000" d="M2013,-122.1097C2013,-131.897 2013,-142 2013,-142 2013,-142 2834.0404,-142 2834.0404,-142 2834.0404,-142 2834.0404,-151.8903 2834.0404,-151.8903"/>
<polygon fill="#000000" stroke="#000000" points="2830.5405,-151.8903 2834.0404,-161.8903 2837.5405,-151.8904 2830.5405,-151.8903"/>
</g>
<!-- AutenticazioneFacadeService -->
<g id="node13" class="node">
<title>AutenticazioneFacadeService</title>
<ellipse fill="#fdb462" stroke="#000000" cx="1107" cy="-104" rx="125.5784" ry="18"/>
<text text-anchor="middle" x="1107" y="-99.8" font-family="Times,serif" font-size="14.00" fill="#000000">AutenticazioneFacadeService</text>
</g>
<!-- AutenticazioneFacadeService&#45;&gt;AutenticazioneModule -->
<g id="edge11" class="edge">
<title>AutenticazioneFacadeService&#45;&gt;AutenticazioneModule</title>
<path fill="none" stroke="#000000" d="M1107,-122.1985C1107,-146.3563 1107,-186 1107,-186 1107,-186 1487.6563,-186 1487.6563,-186"/>
<polygon fill="#000000" stroke="#000000" points="1487.6563,-189.5001 1497.6563,-186 1487.6562,-182.5001 1487.6563,-189.5001"/>
</g>
<!-- CarrelloComponent -->
<g id="node14" class="node">
<title>CarrelloComponent</title>
<polygon fill="#ffffb3" stroke="#000000" points="940.7008,-122 813.2992,-122 813.2992,-86 940.7008,-86 940.7008,-122"/>
<text text-anchor="middle" x="877" y="-99.8" font-family="Times,serif" font-size="14.00" fill="#000000">CarrelloComponent</text>
</g>
<!-- CarrelloComponent&#45;&gt;CarrelloModule -->
<g id="edge12" class="edge">
<title>CarrelloComponent&#45;&gt;CarrelloModule</title>
<path fill="none" stroke="#000000" d="M859.4303,-122.0109C859.4303,-122.0109 859.4303,-151.855 859.4303,-151.855"/>
<polygon fill="#000000" stroke="#000000" points="855.9304,-151.8549 859.4303,-161.855 862.9304,-151.855 855.9304,-151.8549"/>
</g>
<!-- CarrelloRoutingModule -->
<g id="node16" class="node">
<title>CarrelloRoutingModule</title>
<polygon fill="#8dd3c7" stroke="#000000" points="789.0365,-122 786.0365,-126 765.0365,-126 762.0365,-122 638.9635,-122 638.9635,-86 789.0365,-86 789.0365,-122"/>
<text text-anchor="middle" x="714" y="-99.8" font-family="Times,serif" font-size="14.00" fill="#000000">CarrelloRoutingModule</text>
</g>
<!-- CarrelloRoutingModule&#45;&gt;CarrelloModule -->
<g id="edge13" class="edge">
<title>CarrelloRoutingModule&#45;&gt;CarrelloModule</title>
<path fill="none" stroke="#000000" d="M714,-122.0109C714,-144.4852 714,-180 714,-180 714,-180 814.0786,-180 814.0786,-180"/>
<polygon fill="#000000" stroke="#000000" points="814.0786,-183.5001 824.0786,-180 814.0785,-176.5001 814.0786,-183.5001"/>
</g>
<!-- HttpCommunicationsService -->
<g id="node17" class="node">
<title>HttpCommunicationsService</title>
<ellipse fill="#fdb462" stroke="#000000" cx="147" cy="-104" rx="123.292" ry="18"/>
<text text-anchor="middle" x="147" y="-99.8" font-family="Times,serif" font-size="14.00" fill="#000000">HttpCommunicationsService</text>
</g>
<!-- HttpCommunicationsService&#45;&gt;CoreModule -->
<g id="edge15" class="edge">
<title>HttpCommunicationsService&#45;&gt;CoreModule</title>
<path fill="none" stroke="#000000" d="M147,-122.0109C147,-122.0109 147,-151.855 147,-151.855"/>
<polygon fill="#000000" stroke="#000000" points="143.5001,-151.8549 147,-161.855 150.5001,-151.855 143.5001,-151.8549"/>
</g>
<!-- HomeComponent -->
<g id="node18" class="node">
<title>HomeComponent</title>
<polygon fill="#ffffb3" stroke="#000000" points="2379.5451,-122 2264.4549,-122 2264.4549,-86 2379.5451,-86 2379.5451,-122"/>
<text text-anchor="middle" x="2322" y="-99.8" font-family="Times,serif" font-size="14.00" fill="#000000">HomeComponent</text>
</g>
<!-- HomeComponent&#45;&gt;HomeModule -->
<g id="edge16" class="edge">
<title>HomeComponent&#45;&gt;HomeModule</title>
<path fill="none" stroke="#000000" d="M2322,-122.0109C2322,-144.4852 2322,-180 2322,-180 2322,-180 2227.9496,-180 2227.9496,-180"/>
<polygon fill="#000000" stroke="#000000" points="2227.9497,-176.5001 2217.9496,-180 2227.9496,-183.5001 2227.9497,-176.5001"/>
</g>
<!-- HomeRoutingModule -->
<g id="node20" class="node">
<title>HomeRoutingModule</title>
<polygon fill="#8dd3c7" stroke="#000000" points="2240.3795,-122 2237.3795,-126 2216.3795,-126 2213.3795,-122 2101.6205,-122 2101.6205,-86 2240.3795,-86 2240.3795,-122"/>
<text text-anchor="middle" x="2171" y="-99.8" font-family="Times,serif" font-size="14.00" fill="#000000">HomeRoutingModule</text>
</g>
<!-- HomeRoutingModule&#45;&gt;HomeModule -->
<g id="edge17" class="edge">
<title>HomeRoutingModule&#45;&gt;HomeModule</title>
<path fill="none" stroke="#000000" d="M2171,-122.0109C2171,-122.0109 2171,-151.855 2171,-151.855"/>
<polygon fill="#000000" stroke="#000000" points="2167.5001,-151.8549 2171,-161.855 2174.5001,-151.855 2167.5001,-151.8549"/>
</g>
<!-- NotfoundComponent -->
<g id="node21" class="node">
<title>NotfoundComponent</title>
<polygon fill="#ffffb3" stroke="#000000" points="2736.4902,-122 2601.5098,-122 2601.5098,-86 2736.4902,-86 2736.4902,-122"/>
<text text-anchor="middle" x="2669" y="-99.8" font-family="Times,serif" font-size="14.00" fill="#000000">NotfoundComponent</text>
</g>
<!-- NotfoundComponent&#45;&gt;NotfoundModule -->
<g id="edge19" class="edge">
<title>NotfoundComponent&#45;&gt;NotfoundModule</title>
<path fill="none" stroke="#000000" d="M2669,-122.0109C2669,-144.4852 2669,-180 2669,-180 2669,-180 2565.6075,-180 2565.6075,-180"/>
<polygon fill="#000000" stroke="#000000" points="2565.6076,-176.5001 2555.6075,-180 2565.6075,-183.5001 2565.6076,-176.5001"/>
</g>
<!-- NotfoundRoutingModule -->
<g id="node23" class="node">
<title>NotfoundRoutingModule</title>
<polygon fill="#8dd3c7" stroke="#000000" points="2578.3257,-122 2575.3257,-126 2554.3257,-126 2551.3257,-122 2419.6743,-122 2419.6743,-86 2578.3257,-86 2578.3257,-122"/>
<text text-anchor="middle" x="2499" y="-99.8" font-family="Times,serif" font-size="14.00" fill="#000000">NotfoundRoutingModule</text>
</g>
<!-- NotfoundRoutingModule&#45;&gt;NotfoundModule -->
<g id="edge20" class="edge">
<title>NotfoundRoutingModule&#45;&gt;NotfoundModule</title>
<path fill="none" stroke="#000000" d="M2517.8679,-122.0109C2517.8679,-122.0109 2517.8679,-151.855 2517.8679,-151.855"/>
<polygon fill="#000000" stroke="#000000" points="2514.368,-151.8549 2517.8679,-161.855 2521.368,-151.855 2514.368,-151.8549"/>
</g>
<!-- PersonalComponent -->
<g id="node24" class="node">
<title>PersonalComponent</title>
<polygon fill="#ffffb3" stroke="#000000" points="3081.5408,-122 2952.4592,-122 2952.4592,-86 3081.5408,-86 3081.5408,-122"/>
<text text-anchor="middle" x="3017" y="-99.8" font-family="Times,serif" font-size="14.00" fill="#000000">PersonalComponent</text>
</g>
<!-- PersonalComponent&#45;&gt;PersonalModule -->
<g id="edge22" class="edge">
<title>PersonalComponent&#45;&gt;PersonalModule</title>
<path fill="none" stroke="#000000" d="M3017,-122.0109C3017,-144.4852 3017,-180 3017,-180 3017,-180 2916.0272,-180 2916.0272,-180"/>
<polygon fill="#000000" stroke="#000000" points="2916.0272,-176.5001 2906.0272,-180 2916.0271,-183.5001 2916.0272,-176.5001"/>
</g>
<!-- PersonalRoutingModule -->
<g id="node26" class="node">
<title>PersonalRoutingModule</title>
<polygon fill="#8dd3c7" stroke="#000000" points="2928.3753,-122 2925.3753,-126 2904.3753,-126 2901.3753,-122 2775.6247,-122 2775.6247,-86 2928.3753,-86 2928.3753,-122"/>
<text text-anchor="middle" x="2852" y="-99.8" font-family="Times,serif" font-size="14.00" fill="#000000">PersonalRoutingModule</text>
</g>
<!-- PersonalRoutingModule&#45;&gt;PersonalModule -->
<g id="edge23" class="edge">
<title>PersonalRoutingModule&#45;&gt;PersonalModule</title>
<path fill="none" stroke="#000000" d="M2869.9596,-122.0109C2869.9596,-122.0109 2869.9596,-151.855 2869.9596,-151.855"/>
<polygon fill="#000000" stroke="#000000" points="2866.4597,-151.8549 2869.9596,-161.855 2873.4597,-151.855 2866.4597,-151.8549"/>
</g>
</g>
</svg>
