<?xml version="1.0" encoding="UTF-8" standalone="no"?>
<!DOCTYPE svg PUBLIC "-//W3C//DTD SVG 1.1//EN"
 "http://www.w3.org/Graphics/SVG/1.1/DTD/svg11.dtd">
<!-- Generated by graphviz version 2.40.1 (20161225.0304)
 -->
<!-- Title: dependencies Pages: 1 -->
<svg width="3565pt" height="360pt"
 viewBox="0.00 0.00 3565.00 360.00" xmlns="http://www.w3.org/2000/svg" xmlns:xlink="http://www.w3.org/1999/xlink">
<g id="graph0" class="graph" transform="scale(1 1) rotate(0) translate(4 356)">
<title>dependencies</title>
<polygon fill="#ffffff" stroke="transparent" points="-4,4 -4,-356 3561,-356 3561,4 -4,4"/>
<text text-anchor="start" x="1757.5091" y="-42.4" font-family="sans-serif" font-weight="bold" font-size="14.00" fill="#000000">Legend</text>
<polygon fill="#ffffb3" stroke="transparent" points="1544.5,-10 1544.5,-30 1564.5,-30 1564.5,-10 1544.5,-10"/>
<text text-anchor="start" x="1568.129" y="-15.4" font-family="sans-serif" font-size="14.00" fill="#000000"> &#160;Declarations</text>
<polygon fill="#8dd3c7" stroke="transparent" points="1657.5,-10 1657.5,-30 1677.5,-30 1677.5,-10 1657.5,-10"/>
<text text-anchor="start" x="1681.2251" y="-15.4" font-family="sans-serif" font-size="14.00" fill="#000000"> &#160;Module</text>
<polygon fill="#80b1d3" stroke="transparent" points="1743.5,-10 1743.5,-30 1763.5,-30 1763.5,-10 1743.5,-10"/>
<text text-anchor="start" x="1767.2812" y="-15.4" font-family="sans-serif" font-size="14.00" fill="#000000"> &#160;Bootstrap</text>
<polygon fill="#fdb462" stroke="transparent" points="1840.5,-10 1840.5,-30 1860.5,-30 1860.5,-10 1840.5,-10"/>
<text text-anchor="start" x="1864.1732" y="-15.4" font-family="sans-serif" font-size="14.00" fill="#000000"> &#160;Providers</text>
<polygon fill="#fb8072" stroke="transparent" points="1936.5,-10 1936.5,-30 1956.5,-30 1956.5,-10 1936.5,-10"/>
<text text-anchor="start" x="1960.2258" y="-15.4" font-family="sans-serif" font-size="14.00" fill="#000000"> &#160;Exports</text>
<g id="clust1" class="cluster">
<title>cluster_AppModule</title>
<polygon fill="none" stroke="#000000" stroke-dasharray="1,5" points="88,-146 88,-344 615,-344 615,-146 88,-146"/>
</g>
<g id="clust2" class="cluster">
<title>cluster_AppModule_declarations</title>
<polygon fill="none" stroke="#000000" points="353,-154 353,-206 607,-206 607,-154 353,-154"/>
</g>
<g id="clust5" class="cluster">
<title>cluster_AppModule_imports</title>
<polygon fill="none" stroke="#000000" points="96,-154 96,-206 345,-206 345,-154 96,-154"/>
</g>
<g id="clust7" class="cluster">
<title>cluster_AppModule_bootstrap</title>
<polygon fill="none" stroke="#000000" points="283,-284 283,-336 407,-336 407,-284 283,-284"/>
</g>
<g id="clust15" class="cluster">
<title>cluster_AutenticazioneModule</title>
<polygon fill="none" stroke="#000000" stroke-dasharray="1,5" points="1416,-70 1416,-206 2529,-206 2529,-70 1416,-70"/>
</g>
<g id="clust16" class="cluster">
<title>cluster_AutenticazioneModule_declarations</title>
<polygon fill="none" stroke="#000000" points="1700,-78 1700,-130 2191,-130 2191,-78 1700,-78"/>
</g>
<g id="clust20" class="cluster">
<title>cluster_AutenticazioneModule_imports</title>
<polygon fill="none" stroke="#000000" points="2199,-78 2199,-130 2521,-130 2521,-78 2199,-78"/>
</g>
<g id="clust23" class="cluster">
<title>cluster_AutenticazioneModule_providers</title>
<polygon fill="none" stroke="#000000" points="1424,-78 1424,-130 1692,-130 1692,-78 1424,-78"/>
</g>
<g id="clust30" class="cluster">
<title>cluster_CarrelloModule</title>
<polygon fill="none" stroke="#000000" stroke-dasharray="1,5" points="623,-70 623,-206 1408,-206 1408,-70 623,-70"/>
</g>
<g id="clust31" class="cluster">
<title>cluster_CarrelloModule_declarations</title>
<polygon fill="none" stroke="#000000" points="805,-78 805,-130 1400,-130 1400,-78 805,-78"/>
</g>
<g id="clust36" class="cluster">
<title>cluster_CarrelloModule_imports</title>
<polygon fill="none" stroke="#000000" points="631,-78 631,-130 797,-130 797,-78 631,-78"/>
</g>
<g id="clust46" class="cluster">
<title>cluster_CoreModule</title>
<polygon fill="none" stroke="#000000" stroke-dasharray="1,5" points="8,-70 8,-138 286,-138 286,-70 8,-70"/>
</g>
<g id="clust51" class="cluster">
<title>cluster_CoreModule_providers</title>
<polygon fill="none" stroke="#000000" points="16,-78 16,-130 278,-130 278,-78 16,-78"/>
</g>
<g id="clust52" class="cluster">
<title>cluster_HomeModule</title>
<polygon fill="none" stroke="#000000" stroke-dasharray="1,5" points="2537,-70 2537,-206 2847,-206 2847,-70 2537,-70"/>
</g>
<g id="clust53" class="cluster">
<title>cluster_HomeModule_declarations</title>
<polygon fill="none" stroke="#000000" points="2707,-78 2707,-130 2839,-130 2839,-78 2707,-78"/>
</g>
<g id="clust55" class="cluster">
<title>cluster_HomeModule_imports</title>
<polygon fill="none" stroke="#000000" points="2545,-78 2545,-130 2699,-130 2699,-78 2545,-78"/>
</g>
<g id="clust65" class="cluster">
<title>cluster_NotfoundModule</title>
<polygon fill="none" stroke="#000000" stroke-dasharray="1,5" points="2855,-70 2855,-206 3203,-206 3203,-70 2855,-70"/>
</g>
<g id="clust66" class="cluster">
<title>cluster_NotfoundModule_declarations</title>
<polygon fill="none" stroke="#000000" points="3045,-78 3045,-130 3195,-130 3195,-78 3045,-78"/>
</g>
<g id="clust68" class="cluster">
<title>cluster_NotfoundModule_imports</title>
<polygon fill="none" stroke="#000000" points="2863,-78 2863,-130 3037,-130 3037,-78 2863,-78"/>
</g>
<g id="clust78" class="cluster">
<title>cluster_PersonalModule</title>
<polygon fill="none" stroke="#000000" stroke-dasharray="1,5" points="3211,-70 3211,-206 3549,-206 3549,-70 3211,-70"/>
</g>
<g id="clust79" class="cluster">
<title>cluster_PersonalModule_declarations</title>
<polygon fill="none" stroke="#000000" points="3395,-78 3395,-130 3541,-130 3541,-78 3395,-78"/>
</g>
<g id="clust81" class="cluster">
<title>cluster_PersonalModule_imports</title>
<polygon fill="none" stroke="#000000" points="3219,-78 3219,-130 3387,-130 3387,-78 3219,-78"/>
</g>
<!-- AppComponent -->
<g id="node1" class="node">
<title>AppComponent</title>
<polygon fill="#ffffb3" stroke="#000000" points="598.9399,-198 493.0601,-198 493.0601,-162 598.9399,-162 598.9399,-198"/>
<text text-anchor="middle" x="546" y="-175.8" font-family="Times,serif" font-size="14.00" fill="#000000">AppComponent</text>
</g>
<!-- AppModule -->
<g id="node3" class="node">
<title>AppModule</title>
<polygon fill="#8dd3c7" stroke="#000000" points="386.6571,-263 383.6571,-267 362.6571,-267 359.6571,-263 303.3429,-263 303.3429,-227 386.6571,-227 386.6571,-263"/>
<text text-anchor="middle" x="345" y="-240.8" font-family="Times,serif" font-size="14.00" fill="#000000">AppModule</text>
</g>
<!-- AppComponent&#45;&gt;AppModule -->
<g id="edge1" class="edge">
<title>AppComponent&#45;&gt;AppModule</title>
<path fill="none" stroke="#000000" d="M546,-198.1061C546,-217.3391 546,-245 546,-245 546,-245 397.1362,-245 397.1362,-245"/>
<polygon fill="#000000" stroke="#000000" points="397.1362,-241.5001 387.1362,-245 397.1362,-248.5001 397.1362,-241.5001"/>
</g>
<!-- MenuComponent -->
<g id="node2" class="node">
<title>MenuComponent</title>
<polygon fill="#ffffb3" stroke="#000000" points="474.9916,-198 361.0084,-198 361.0084,-162 474.9916,-162 474.9916,-198"/>
<text text-anchor="middle" x="418" y="-175.8" font-family="Times,serif" font-size="14.00" fill="#000000">MenuComponent</text>
</g>
<!-- MenuComponent&#45;&gt;AppModule -->
<g id="edge2" class="edge">
<title>MenuComponent&#45;&gt;AppModule</title>
<path fill="none" stroke="#000000" d="M373.9162,-198.1061C373.9162,-198.1061 373.9162,-216.991 373.9162,-216.991"/>
<polygon fill="#000000" stroke="#000000" points="370.4163,-216.9909 373.9162,-226.991 377.4163,-216.991 370.4163,-216.9909"/>
</g>
<!-- AppComponent  -->
<g id="node6" class="node">
<title>AppComponent </title>
<polygon fill="#80b1d3" stroke="#000000" points="399.439,-328 290.561,-328 290.561,-292 399.439,-292 399.439,-328"/>
<text text-anchor="middle" x="345" y="-305.8" font-family="Times,serif" font-size="14.00" fill="#000000">AppComponent </text>
</g>
<!-- AppModule&#45;&gt;AppComponent  -->
<g id="edge5" class="edge">
<title>AppModule&#45;&gt;AppComponent </title>
<path fill="none" stroke="#000000" stroke-dasharray="1,5" d="M345,-263.1061C345,-263.1061 345,-281.991 345,-281.991"/>
<polygon fill="#000000" stroke="#000000" points="341.5001,-281.9909 345,-291.991 348.5001,-281.991 341.5001,-281.9909"/>
</g>
<!-- AppRoutingModule -->
<g id="node4" class="node">
<title>AppRoutingModule</title>
<polygon fill="#8dd3c7" stroke="#000000" points="337.2744,-198 334.2744,-202 313.2744,-202 310.2744,-198 208.7256,-198 208.7256,-162 337.2744,-162 337.2744,-198"/>
<text text-anchor="middle" x="273" y="-175.8" font-family="Times,serif" font-size="14.00" fill="#000000">AppRoutingModule</text>
</g>
<!-- AppRoutingModule&#45;&gt;AppModule -->
<g id="edge3" class="edge">
<title>AppRoutingModule&#45;&gt;AppModule</title>
<path fill="none" stroke="#000000" d="M320.2795,-198.1061C320.2795,-198.1061 320.2795,-216.991 320.2795,-216.991"/>
<polygon fill="#000000" stroke="#000000" points="316.7795,-216.9909 320.2795,-226.991 323.7795,-216.991 316.7795,-216.9909"/>
</g>
<!-- CoreModule -->
<g id="node5" class="node">
<title>CoreModule</title>
<polygon fill="#8dd3c7" stroke="#000000" points="190.2619,-198 187.2619,-202 166.2619,-202 163.2619,-198 103.7381,-198 103.7381,-162 190.2619,-162 190.2619,-198"/>
<text text-anchor="middle" x="147" y="-175.8" font-family="Times,serif" font-size="14.00" fill="#000000">CoreModule</text>
</g>
<!-- CoreModule&#45;&gt;AppModule -->
<g id="edge4" class="edge">
<title>CoreModule&#45;&gt;AppModule</title>
<path fill="none" stroke="#000000" d="M147,-198.1061C147,-217.3391 147,-245 147,-245 147,-245 293.0093,-245 293.0093,-245"/>
<polygon fill="#000000" stroke="#000000" points="293.0093,-248.5001 303.0093,-245 293.0093,-241.5001 293.0093,-248.5001"/>
</g>
<!-- AutenticazioneComponent -->
<g id="node7" class="node">
<title>AutenticazioneComponent</title>
<polygon fill="#ffffb3" stroke="#000000" points="2183.0744,-122 2016.9256,-122 2016.9256,-86 2183.0744,-86 2183.0744,-122"/>
<text text-anchor="middle" x="2100" y="-99.8" font-family="Times,serif" font-size="14.00" fill="#000000">AutenticazioneComponent</text>
</g>
<!-- AutenticazioneModule -->
<g id="node10" class="node">
<title>AutenticazioneModule</title>
<polygon fill="#8dd3c7" stroke="#000000" points="2093.2921,-198 2090.2921,-202 2069.2921,-202 2066.2921,-198 1948.7079,-198 1948.7079,-162 2093.2921,-162 2093.2921,-198"/>
<text text-anchor="middle" x="2021" y="-175.8" font-family="Times,serif" font-size="14.00" fill="#000000">AutenticazioneModule</text>
</g>
<!-- AutenticazioneComponent&#45;&gt;AutenticazioneModule -->
<g id="edge6" class="edge">
<title>AutenticazioneComponent&#45;&gt;AutenticazioneModule</title>
<path fill="none" stroke="#000000" d="M2055.0544,-122.0109C2055.0544,-122.0109 2055.0544,-151.855 2055.0544,-151.855"/>
<polygon fill="#000000" stroke="#000000" points="2051.5544,-151.8549 2055.0544,-161.855 2058.5544,-151.855 2051.5544,-151.8549"/>
</g>
<!-- LoginComponent -->
<g id="node8" class="node">
<title>LoginComponent</title>
<polygon fill="#ffffb3" stroke="#000000" points="1999.2758,-122 1884.7242,-122 1884.7242,-86 1999.2758,-86 1999.2758,-122"/>
<text text-anchor="middle" x="1942" y="-99.8" font-family="Times,serif" font-size="14.00" fill="#000000">LoginComponent</text>
</g>
<!-- LoginComponent&#45;&gt;AutenticazioneModule -->
<g id="edge7" class="edge">
<title>LoginComponent&#45;&gt;AutenticazioneModule</title>
<path fill="none" stroke="#000000" d="M1974.121,-122.0109C1974.121,-122.0109 1974.121,-151.855 1974.121,-151.855"/>
<polygon fill="#000000" stroke="#000000" points="1970.621,-151.8549 1974.121,-161.855 1977.621,-151.855 1970.621,-151.8549"/>
</g>
<!-- RegistrazioneComponent -->
<g id="node9" class="node">
<title>RegistrazioneComponent</title>
<polygon fill="#ffffb3" stroke="#000000" points="1866.3047,-122 1707.6953,-122 1707.6953,-86 1866.3047,-86 1866.3047,-122"/>
<text text-anchor="middle" x="1787" y="-99.8" font-family="Times,serif" font-size="14.00" fill="#000000">RegistrazioneComponent</text>
</g>
<!-- RegistrazioneComponent&#45;&gt;AutenticazioneModule -->
<g id="edge8" class="edge">
<title>RegistrazioneComponent&#45;&gt;AutenticazioneModule</title>
<path fill="none" stroke="#000000" d="M1787,-122.308C1787,-142.1455 1787,-171 1787,-171 1787,-171 1938.5634,-171 1938.5634,-171"/>
<polygon fill="#000000" stroke="#000000" points="1938.5635,-174.5001 1948.5634,-171 1938.5634,-167.5001 1938.5635,-174.5001"/>
</g>
<!-- AutenticazioneRoutingModule -->
<g id="node11" class="node">
<title>AutenticazioneRoutingModule</title>
<polygon fill="#8dd3c7" stroke="#000000" points="2396.91,-122 2393.91,-126 2372.91,-126 2369.91,-122 2207.09,-122 2207.09,-86 2396.91,-86 2396.91,-122"/>
<text text-anchor="middle" x="2302" y="-99.8" font-family="Times,serif" font-size="14.00" fill="#000000">AutenticazioneRoutingModule</text>
</g>
<!-- AutenticazioneRoutingModule&#45;&gt;AutenticazioneModule -->
<g id="edge9" class="edge">
<title>AutenticazioneRoutingModule&#45;&gt;AutenticazioneModule</title>
<path fill="none" stroke="#000000" d="M2302,-122.308C2302,-142.1455 2302,-171 2302,-171 2302,-171 2103.3645,-171 2103.3645,-171"/>
<polygon fill="#000000" stroke="#000000" points="2103.3645,-167.5001 2093.3645,-171 2103.3644,-174.5001 2103.3645,-167.5001"/>
</g>
<!-- SharedModule -->
<g id="node12" class="node">
<title>SharedModule</title>
<polygon fill="#8dd3c7" stroke="#000000" points="2513.4231,-122 2510.4231,-126 2489.4231,-126 2486.4231,-122 2414.5769,-122 2414.5769,-86 2513.4231,-86 2513.4231,-122"/>
<text text-anchor="middle" x="2464" y="-99.8" font-family="Times,serif" font-size="14.00" fill="#000000">SharedModule</text>
</g>
<!-- SharedModule&#45;&gt;AutenticazioneModule -->
<g id="edge10" class="edge">
<title>SharedModule&#45;&gt;AutenticazioneModule</title>
<path fill="none" stroke="#000000" d="M2480.4037,-122.0109C2480.4037,-144.4852 2480.4037,-180 2480.4037,-180 2480.4037,-180 2103.2872,-180 2103.2872,-180"/>
<polygon fill="#000000" stroke="#000000" points="2103.2872,-176.5001 2093.2872,-180 2103.2872,-183.5001 2103.2872,-176.5001"/>
</g>
<!-- CarrelloModule -->
<g id="node18" class="node">
<title>CarrelloModule</title>
<polygon fill="#8dd3c7" stroke="#000000" points="1156.9188,-198 1153.9188,-202 1132.9188,-202 1129.9188,-198 1051.0812,-198 1051.0812,-162 1156.9188,-162 1156.9188,-198"/>
<text text-anchor="middle" x="1104" y="-175.8" font-family="Times,serif" font-size="14.00" fill="#000000">CarrelloModule</text>
</g>
<!-- SharedModule&#45;&gt;CarrelloModule -->
<g id="edge17" class="edge">
<title>SharedModule&#45;&gt;CarrelloModule</title>
<path fill="none" stroke="#000000" d="M2431.1926,-122.207C2431.1926,-127.5549 2431.1926,-132 2431.1926,-132 2431.1926,-132 1142.2342,-132 1142.2342,-132 1142.2342,-132 1142.2342,-151.8533 1142.2342,-151.8533"/>
<polygon fill="#000000" stroke="#000000" points="1138.7343,-151.8532 1142.2342,-161.8533 1145.7343,-151.8533 1138.7343,-151.8532"/>
</g>
<!-- HomeModule -->
<g id="node22" class="node">
<title>HomeModule</title>
<polygon fill="#8dd3c7" stroke="#000000" points="2668.7619,-198 2665.7619,-202 2644.7619,-202 2641.7619,-198 2575.2381,-198 2575.2381,-162 2668.7619,-162 2668.7619,-198"/>
<text text-anchor="middle" x="2622" y="-175.8" font-family="Times,serif" font-size="14.00" fill="#000000">HomeModule</text>
</g>
<!-- SharedModule&#45;&gt;HomeModule -->
<g id="edge21" class="edge">
<title>SharedModule&#45;&gt;HomeModule</title>
<path fill="none" stroke="#000000" d="M2496.8074,-122.0263C2496.8074,-146.9773 2496.8074,-189 2496.8074,-189 2496.8074,-189 2565.0267,-189 2565.0267,-189"/>
<polygon fill="#000000" stroke="#000000" points="2565.0267,-192.5001 2575.0267,-189 2565.0267,-185.5001 2565.0267,-192.5001"/>
</g>
<!-- NotfoundModule -->
<g id="node25" class="node">
<title>NotfoundModule</title>
<polygon fill="#8dd3c7" stroke="#000000" points="3006.7078,-198 3003.7078,-202 2982.7078,-202 2979.7078,-198 2893.2922,-198 2893.2922,-162 3006.7078,-162 3006.7078,-198"/>
<text text-anchor="middle" x="2950" y="-175.8" font-family="Times,serif" font-size="14.00" fill="#000000">NotfoundModule</text>
</g>
<!-- SharedModule&#45;&gt;NotfoundModule -->
<g id="edge24" class="edge">
<title>SharedModule&#45;&gt;NotfoundModule</title>
<path fill="none" stroke="#000000" d="M2447.5963,-122.1467C2447.5963,-135.7395 2447.5963,-152 2447.5963,-152 2447.5963,-152 2931.1321,-152 2931.1321,-152 2931.1321,-152 2931.1321,-152.9793 2931.1321,-152.9793"/>
<polygon fill="#000000" stroke="#000000" points="2927.6322,-151.793 2931.1321,-161.793 2934.6322,-151.7931 2927.6322,-151.793"/>
</g>
<!-- PersonalModule -->
<g id="node28" class="node">
<title>PersonalModule</title>
<polygon fill="#8dd3c7" stroke="#000000" points="3356.7577,-198 3353.7577,-202 3332.7577,-202 3329.7577,-198 3249.2423,-198 3249.2423,-162 3356.7577,-162 3356.7577,-198"/>
<text text-anchor="middle" x="3303" y="-175.8" font-family="Times,serif" font-size="14.00" fill="#000000">PersonalModule</text>
</g>
<!-- SharedModule&#45;&gt;PersonalModule -->
<g id="edge27" class="edge">
<title>SharedModule&#45;&gt;PersonalModule</title>
<path fill="none" stroke="#000000" d="M2464,-122.1097C2464,-131.897 2464,-142 2464,-142 2464,-142 3285.0404,-142 3285.0404,-142 3285.0404,-142 3285.0404,-151.8903 3285.0404,-151.8903"/>
<polygon fill="#000000" stroke="#000000" points="3281.5405,-151.8903 3285.0404,-161.8903 3288.5405,-151.8904 3281.5405,-151.8903"/>
</g>
<!-- AutenticazioneFacadeService -->
<g id="node13" class="node">
<title>AutenticazioneFacadeService</title>
<ellipse fill="#fdb462" stroke="#000000" cx="1558" cy="-104" rx="125.5784" ry="18"/>
<text text-anchor="middle" x="1558" y="-99.8" font-family="Times,serif" font-size="14.00" fill="#000000">AutenticazioneFacadeService</text>
</g>
<!-- AutenticazioneFacadeService&#45;&gt;AutenticazioneModule -->
<g id="edge11" class="edge">
<title>AutenticazioneFacadeService&#45;&gt;AutenticazioneModule</title>
<path fill="none" stroke="#000000" d="M1558,-122.0109C1558,-144.4852 1558,-180 1558,-180 1558,-180 1938.6563,-180 1938.6563,-180"/>
<polygon fill="#000000" stroke="#000000" points="1938.6563,-183.5001 1948.6563,-180 1938.6562,-176.5001 1938.6563,-183.5001"/>
</g>
<!-- CarrelloComponent -->
<g id="node14" class="node">
<title>CarrelloComponent</title>
<polygon fill="#ffffb3" stroke="#000000" points="1391.7008,-122 1264.2992,-122 1264.2992,-86 1391.7008,-86 1391.7008,-122"/>
<text text-anchor="middle" x="1328" y="-99.8" font-family="Times,serif" font-size="14.00" fill="#000000">CarrelloComponent</text>
</g>
<!-- CarrelloComponent&#45;&gt;CarrelloModule -->
<g id="edge12" class="edge">
<title>CarrelloComponent&#45;&gt;CarrelloModule</title>
<path fill="none" stroke="#000000" d="M1328,-122.0263C1328,-146.9773 1328,-189 1328,-189 1328,-189 1166.8012,-189 1166.8012,-189"/>
<polygon fill="#000000" stroke="#000000" points="1166.8013,-185.5001 1156.8012,-189 1166.8012,-192.5001 1166.8013,-185.5001"/>
</g>
<!-- DettaglioComponent -->
<g id="node15" class="node">
<title>DettaglioComponent</title>
<polygon fill="#ffffb3" stroke="#000000" points="1246.9313,-122 1113.0687,-122 1113.0687,-86 1246.9313,-86 1246.9313,-122"/>
<text text-anchor="middle" x="1180" y="-99.8" font-family="Times,serif" font-size="14.00" fill="#000000">DettaglioComponent</text>
</g>
<!-- DettaglioComponent&#45;&gt;CarrelloModule -->
<g id="edge13" class="edge">
<title>DettaglioComponent&#45;&gt;CarrelloModule</title>
<path fill="none" stroke="#000000" d="M1127.7595,-122.0109C1127.7595,-122.0109 1127.7595,-151.855 1127.7595,-151.855"/>
<polygon fill="#000000" stroke="#000000" points="1124.2596,-151.8549 1127.7595,-161.855 1131.2596,-151.855 1124.2596,-151.8549"/>
</g>
<!-- IndirizzoComponent -->
<g id="node16" class="node">
<title>IndirizzoComponent</title>
<polygon fill="#ffffb3" stroke="#000000" points="1094.8641,-122 963.1359,-122 963.1359,-86 1094.8641,-86 1094.8641,-122"/>
<text text-anchor="middle" x="1029" y="-99.8" font-family="Times,serif" font-size="14.00" fill="#000000">IndirizzoComponent</text>
</g>
<!-- IndirizzoComponent&#45;&gt;CarrelloModule -->
<g id="edge14" class="edge">
<title>IndirizzoComponent&#45;&gt;CarrelloModule</title>
<path fill="none" stroke="#000000" d="M1073.1115,-122.0109C1073.1115,-122.0109 1073.1115,-151.855 1073.1115,-151.855"/>
<polygon fill="#000000" stroke="#000000" points="1069.6116,-151.8549 1073.1115,-161.855 1076.6116,-151.855 1069.6116,-151.8549"/>
</g>
<!-- ModificaComponent -->
<g id="node17" class="node">
<title>ModificaComponent</title>
<polygon fill="#ffffb3" stroke="#000000" points="945.1485,-122 812.8515,-122 812.8515,-86 945.1485,-86 945.1485,-122"/>
<text text-anchor="middle" x="879" y="-99.8" font-family="Times,serif" font-size="14.00" fill="#000000">ModificaComponent</text>
</g>
<!-- ModificaComponent&#45;&gt;CarrelloModule -->
<g id="edge15" class="edge">
<title>ModificaComponent&#45;&gt;CarrelloModule</title>
<path fill="none" stroke="#000000" d="M879,-122.0267C879,-142.7672 879,-174 879,-174 879,-174 1041.2475,-174 1041.2475,-174"/>
<polygon fill="#000000" stroke="#000000" points="1041.2475,-177.5001 1051.2475,-174 1041.2475,-170.5001 1041.2475,-177.5001"/>
</g>
<!-- CarrelloRoutingModule -->
<g id="node19" class="node">
<title>CarrelloRoutingModule</title>
<polygon fill="#8dd3c7" stroke="#000000" points="789.0365,-122 786.0365,-126 765.0365,-126 762.0365,-122 638.9635,-122 638.9635,-86 789.0365,-86 789.0365,-122"/>
<text text-anchor="middle" x="714" y="-99.8" font-family="Times,serif" font-size="14.00" fill="#000000">CarrelloRoutingModule</text>
</g>
<!-- CarrelloRoutingModule&#45;&gt;CarrelloModule -->
<g id="edge16" class="edge">
<title>CarrelloRoutingModule&#45;&gt;CarrelloModule</title>
<path fill="none" stroke="#000000" d="M714,-122.1985C714,-146.3563 714,-186 714,-186 714,-186 1040.997,-186 1040.997,-186"/>
<polygon fill="#000000" stroke="#000000" points="1040.997,-189.5001 1050.997,-186 1040.9969,-182.5001 1040.997,-189.5001"/>
</g>
<!-- HttpCommunicationsService -->
<g id="node20" class="node">
<title>HttpCommunicationsService</title>
<ellipse fill="#fdb462" stroke="#000000" cx="147" cy="-104" rx="123.292" ry="18"/>
<text text-anchor="middle" x="147" y="-99.8" font-family="Times,serif" font-size="14.00" fill="#000000">HttpCommunicationsService</text>
</g>
<!-- HttpCommunicationsService&#45;&gt;CoreModule -->
<g id="edge18" class="edge">
<title>HttpCommunicationsService&#45;&gt;CoreModule</title>
<path fill="none" stroke="#000000" d="M147,-122.0109C147,-122.0109 147,-151.855 147,-151.855"/>
<polygon fill="#000000" stroke="#000000" points="143.5001,-151.8549 147,-161.855 150.5001,-151.855 143.5001,-151.8549"/>
</g>
<!-- HomeComponent -->
<g id="node21" class="node">
<title>HomeComponent</title>
<polygon fill="#ffffb3" stroke="#000000" points="2830.5451,-122 2715.4549,-122 2715.4549,-86 2830.5451,-86 2830.5451,-122"/>
<text text-anchor="middle" x="2773" y="-99.8" font-family="Times,serif" font-size="14.00" fill="#000000">HomeComponent</text>
</g>
<!-- HomeComponent&#45;&gt;HomeModule -->
<g id="edge19" class="edge">
<title>HomeComponent&#45;&gt;HomeModule</title>
<path fill="none" stroke="#000000" d="M2773,-122.0109C2773,-144.4852 2773,-180 2773,-180 2773,-180 2678.9496,-180 2678.9496,-180"/>
<polygon fill="#000000" stroke="#000000" points="2678.9497,-176.5001 2668.9496,-180 2678.9496,-183.5001 2678.9497,-176.5001"/>
</g>
<!-- HomeRoutingModule -->
<g id="node23" class="node">
<title>HomeRoutingModule</title>
<polygon fill="#8dd3c7" stroke="#000000" points="2691.3795,-122 2688.3795,-126 2667.3795,-126 2664.3795,-122 2552.6205,-122 2552.6205,-86 2691.3795,-86 2691.3795,-122"/>
<text text-anchor="middle" x="2622" y="-99.8" font-family="Times,serif" font-size="14.00" fill="#000000">HomeRoutingModule</text>
</g>
<!-- HomeRoutingModule&#45;&gt;HomeModule -->
<g id="edge20" class="edge">
<title>HomeRoutingModule&#45;&gt;HomeModule</title>
<path fill="none" stroke="#000000" d="M2622,-122.0109C2622,-122.0109 2622,-151.855 2622,-151.855"/>
<polygon fill="#000000" stroke="#000000" points="2618.5001,-151.8549 2622,-161.855 2625.5001,-151.855 2618.5001,-151.8549"/>
</g>
<!-- NotfoundComponent -->
<g id="node24" class="node">
<title>NotfoundComponent</title>
<polygon fill="#ffffb3" stroke="#000000" points="3187.4902,-122 3052.5098,-122 3052.5098,-86 3187.4902,-86 3187.4902,-122"/>
<text text-anchor="middle" x="3120" y="-99.8" font-family="Times,serif" font-size="14.00" fill="#000000">NotfoundComponent</text>
</g>
<!-- NotfoundComponent&#45;&gt;NotfoundModule -->
<g id="edge22" class="edge">
<title>NotfoundComponent&#45;&gt;NotfoundModule</title>
<path fill="none" stroke="#000000" d="M3120,-122.0109C3120,-144.4852 3120,-180 3120,-180 3120,-180 3016.6075,-180 3016.6075,-180"/>
<polygon fill="#000000" stroke="#000000" points="3016.6076,-176.5001 3006.6075,-180 3016.6075,-183.5001 3016.6076,-176.5001"/>
</g>
<!-- NotfoundRoutingModule -->
<g id="node26" class="node">
<title>NotfoundRoutingModule</title>
<polygon fill="#8dd3c7" stroke="#000000" points="3029.3257,-122 3026.3257,-126 3005.3257,-126 3002.3257,-122 2870.6743,-122 2870.6743,-86 3029.3257,-86 3029.3257,-122"/>
<text text-anchor="middle" x="2950" y="-99.8" font-family="Times,serif" font-size="14.00" fill="#000000">NotfoundRoutingModule</text>
</g>
<!-- NotfoundRoutingModule&#45;&gt;NotfoundModule -->
<g id="edge23" class="edge">
<title>NotfoundRoutingModule&#45;&gt;NotfoundModule</title>
<path fill="none" stroke="#000000" d="M2968.8679,-122.0109C2968.8679,-122.0109 2968.8679,-151.855 2968.8679,-151.855"/>
<polygon fill="#000000" stroke="#000000" points="2965.368,-151.8549 2968.8679,-161.855 2972.368,-151.855 2965.368,-151.8549"/>
</g>
<!-- PersonalComponent -->
<g id="node27" class="node">
<title>PersonalComponent</title>
<polygon fill="#ffffb3" stroke="#000000" points="3532.5408,-122 3403.4592,-122 3403.4592,-86 3532.5408,-86 3532.5408,-122"/>
<text text-anchor="middle" x="3468" y="-99.8" font-family="Times,serif" font-size="14.00" fill="#000000">PersonalComponent</text>
</g>
<!-- PersonalComponent&#45;&gt;PersonalModule -->
<g id="edge25" class="edge">
<title>PersonalComponent&#45;&gt;PersonalModule</title>
<path fill="none" stroke="#000000" d="M3468,-122.0109C3468,-144.4852 3468,-180 3468,-180 3468,-180 3367.0272,-180 3367.0272,-180"/>
<polygon fill="#000000" stroke="#000000" points="3367.0272,-176.5001 3357.0272,-180 3367.0271,-183.5001 3367.0272,-176.5001"/>
</g>
<!-- PersonalRoutingModule -->
<g id="node29" class="node">
<title>PersonalRoutingModule</title>
<polygon fill="#8dd3c7" stroke="#000000" points="3379.3753,-122 3376.3753,-126 3355.3753,-126 3352.3753,-122 3226.6247,-122 3226.6247,-86 3379.3753,-86 3379.3753,-122"/>
<text text-anchor="middle" x="3303" y="-99.8" font-family="Times,serif" font-size="14.00" fill="#000000">PersonalRoutingModule</text>
</g>
<!-- PersonalRoutingModule&#45;&gt;PersonalModule -->
<g id="edge26" class="edge">
<title>PersonalRoutingModule&#45;&gt;PersonalModule</title>
<path fill="none" stroke="#000000" d="M3320.9596,-122.0109C3320.9596,-122.0109 3320.9596,-151.855 3320.9596,-151.855"/>
<polygon fill="#000000" stroke="#000000" points="3317.4597,-151.8549 3320.9596,-161.855 3324.4597,-151.855 3317.4597,-151.8549"/>
</g>
</g>
</svg>
