<?xml version="1.0" encoding="UTF-8" standalone="no"?>
<!DOCTYPE svg PUBLIC "-//W3C//DTD SVG 1.1//EN"
 "http://www.w3.org/Graphics/SVG/1.1/DTD/svg11.dtd">
<!-- Generated by graphviz version 2.40.1 (20161225.0304)
 -->
<!-- Title: dependencies Pages: 1 -->
<svg width="1137pt" height="211pt"
 viewBox="0.00 0.00 1137.00 211.00" xmlns="http://www.w3.org/2000/svg" xmlns:xlink="http://www.w3.org/1999/xlink">
<g id="graph0" class="graph" transform="scale(1 1) rotate(0) translate(4 207)">
<title>dependencies</title>
<polygon fill="#ffffff" stroke="transparent" points="-4,4 -4,-207 1133,-207 1133,4 -4,4"/>
<text text-anchor="start" x="543.5091" y="-42.4" font-family="sans-serif" font-weight="bold" font-size="14.00" fill="#000000">Legend</text>
<polygon fill="#ffffb3" stroke="transparent" points="330.5,-10 330.5,-30 350.5,-30 350.5,-10 330.5,-10"/>
<text text-anchor="start" x="354.129" y="-15.4" font-family="sans-serif" font-size="14.00" fill="#000000"> &#160;Declarations</text>
<polygon fill="#8dd3c7" stroke="transparent" points="443.5,-10 443.5,-30 463.5,-30 463.5,-10 443.5,-10"/>
<text text-anchor="start" x="467.2251" y="-15.4" font-family="sans-serif" font-size="14.00" fill="#000000"> &#160;Module</text>
<polygon fill="#80b1d3" stroke="transparent" points="529.5,-10 529.5,-30 549.5,-30 549.5,-10 529.5,-10"/>
<text text-anchor="start" x="553.2812" y="-15.4" font-family="sans-serif" font-size="14.00" fill="#000000"> &#160;Bootstrap</text>
<polygon fill="#fdb462" stroke="transparent" points="626.5,-10 626.5,-30 646.5,-30 646.5,-10 626.5,-10"/>
<text text-anchor="start" x="650.1732" y="-15.4" font-family="sans-serif" font-size="14.00" fill="#000000"> &#160;Providers</text>
<polygon fill="#fb8072" stroke="transparent" points="722.5,-10 722.5,-30 742.5,-30 742.5,-10 722.5,-10"/>
<text text-anchor="start" x="746.2258" y="-15.4" font-family="sans-serif" font-size="14.00" fill="#000000"> &#160;Exports</text>
<g id="clust1" class="cluster">
<title>cluster_AutenticazioneModule</title>
<polygon fill="none" stroke="#000000" stroke-dasharray="1,5" points="8,-70 8,-195 1121,-195 1121,-70 8,-70"/>
</g>
<g id="clust2" class="cluster">
<title>cluster_AutenticazioneModule_declarations</title>
<polygon fill="none" stroke="#000000" points="622,-78 622,-130 1113,-130 1113,-78 622,-78"/>
</g>
<g id="clust6" class="cluster">
<title>cluster_AutenticazioneModule_imports</title>
<polygon fill="none" stroke="#000000" points="292,-78 292,-130 614,-130 614,-78 292,-78"/>
</g>
<g id="clust9" class="cluster">
<title>cluster_AutenticazioneModule_providers</title>
<polygon fill="none" stroke="#000000" points="16,-78 16,-130 284,-130 284,-78 16,-78"/>
</g>
<!-- AutenticazioneComponent -->
<g id="node1" class="node">
<title>AutenticazioneComponent</title>
<polygon fill="#ffffb3" stroke="#000000" points="1105.0744,-122 938.9256,-122 938.9256,-86 1105.0744,-86 1105.0744,-122"/>
<text text-anchor="middle" x="1022" y="-99.8" font-family="Times,serif" font-size="14.00" fill="#000000">AutenticazioneComponent</text>
</g>
<!-- AutenticazioneModule -->
<g id="node4" class="node">
<title>AutenticazioneModule</title>
<polygon fill="#8dd3c7" stroke="#000000" points="682.2921,-187 679.2921,-191 658.2921,-191 655.2921,-187 537.7079,-187 537.7079,-151 682.2921,-151 682.2921,-187"/>
<text text-anchor="middle" x="610" y="-164.8" font-family="Times,serif" font-size="14.00" fill="#000000">AutenticazioneModule</text>
</g>
<!-- AutenticazioneComponent&#45;&gt;AutenticazioneModule -->
<g id="edge1" class="edge">
<title>AutenticazioneComponent&#45;&gt;AutenticazioneModule</title>
<path fill="none" stroke="#000000" d="M1022,-122.2843C1022,-143.3211 1022,-175 1022,-175 1022,-175 692.2364,-175 692.2364,-175"/>
<polygon fill="#000000" stroke="#000000" points="692.2364,-171.5001 682.2364,-175 692.2363,-178.5001 692.2364,-171.5001"/>
</g>
<!-- LoginComponent -->
<g id="node2" class="node">
<title>LoginComponent</title>
<polygon fill="#ffffb3" stroke="#000000" points="921.2758,-122 806.7242,-122 806.7242,-86 921.2758,-86 921.2758,-122"/>
<text text-anchor="middle" x="864" y="-99.8" font-family="Times,serif" font-size="14.00" fill="#000000">LoginComponent</text>
</g>
<!-- LoginComponent&#45;&gt;AutenticazioneModule -->
<g id="edge2" class="edge">
<title>LoginComponent&#45;&gt;AutenticazioneModule</title>
<path fill="none" stroke="#000000" d="M864,-122.0225C864,-139.3734 864,-163 864,-163 864,-163 692.4463,-163 692.4463,-163"/>
<polygon fill="#000000" stroke="#000000" points="692.4463,-159.5001 682.4463,-163 692.4462,-166.5001 692.4463,-159.5001"/>
</g>
<!-- RegistrazioneComponent -->
<g id="node3" class="node">
<title>RegistrazioneComponent</title>
<polygon fill="#ffffb3" stroke="#000000" points="788.3047,-122 629.6953,-122 629.6953,-86 788.3047,-86 788.3047,-122"/>
<text text-anchor="middle" x="709" y="-99.8" font-family="Times,serif" font-size="14.00" fill="#000000">RegistrazioneComponent</text>
</g>
<!-- RegistrazioneComponent&#45;&gt;AutenticazioneModule -->
<g id="edge3" class="edge">
<title>RegistrazioneComponent&#45;&gt;AutenticazioneModule</title>
<path fill="none" stroke="#000000" d="M655.9969,-122.1061C655.9969,-122.1061 655.9969,-140.991 655.9969,-140.991"/>
<polygon fill="#000000" stroke="#000000" points="652.4969,-140.9909 655.9969,-150.991 659.4969,-140.991 652.4969,-140.9909"/>
</g>
<!-- AutenticazioneRoutingModule -->
<g id="node5" class="node">
<title>AutenticazioneRoutingModule</title>
<polygon fill="#8dd3c7" stroke="#000000" points="605.91,-122 602.91,-126 581.91,-126 578.91,-122 416.09,-122 416.09,-86 605.91,-86 605.91,-122"/>
<text text-anchor="middle" x="511" y="-99.8" font-family="Times,serif" font-size="14.00" fill="#000000">AutenticazioneRoutingModule</text>
</g>
<!-- AutenticazioneRoutingModule&#45;&gt;AutenticazioneModule -->
<g id="edge4" class="edge">
<title>AutenticazioneRoutingModule&#45;&gt;AutenticazioneModule</title>
<path fill="none" stroke="#000000" d="M571.7795,-122.1061C571.7795,-122.1061 571.7795,-140.991 571.7795,-140.991"/>
<polygon fill="#000000" stroke="#000000" points="568.2795,-140.9909 571.7795,-150.991 575.2795,-140.991 568.2795,-140.9909"/>
</g>
<!-- SharedModule -->
<g id="node6" class="node">
<title>SharedModule</title>
<polygon fill="#8dd3c7" stroke="#000000" points="398.4231,-122 395.4231,-126 374.4231,-126 371.4231,-122 299.5769,-122 299.5769,-86 398.4231,-86 398.4231,-122"/>
<text text-anchor="middle" x="349" y="-99.8" font-family="Times,serif" font-size="14.00" fill="#000000">SharedModule</text>
</g>
<!-- SharedModule&#45;&gt;AutenticazioneModule -->
<g id="edge5" class="edge">
<title>SharedModule&#45;&gt;AutenticazioneModule</title>
<path fill="none" stroke="#000000" d="M349,-122.0225C349,-139.3734 349,-163 349,-163 349,-163 527.6436,-163 527.6436,-163"/>
<polygon fill="#000000" stroke="#000000" points="527.6436,-166.5001 537.6436,-163 527.6435,-159.5001 527.6436,-166.5001"/>
</g>
<!-- AutenticazioneFacadeService -->
<g id="node7" class="node">
<title>AutenticazioneFacadeService</title>
<ellipse fill="#fdb462" stroke="#000000" cx="150" cy="-104" rx="125.5784" ry="18"/>
<text text-anchor="middle" x="150" y="-99.8" font-family="Times,serif" font-size="14.00" fill="#000000">AutenticazioneFacadeService</text>
</g>
<!-- AutenticazioneFacadeService&#45;&gt;AutenticazioneModule -->
<g id="edge6" class="edge">
<title>AutenticazioneFacadeService&#45;&gt;AutenticazioneModule</title>
<path fill="none" stroke="#000000" d="M150,-122.2843C150,-143.3211 150,-175 150,-175 150,-175 527.619,-175 527.619,-175"/>
<polygon fill="#000000" stroke="#000000" points="527.619,-178.5001 537.619,-175 527.6189,-171.5001 527.619,-178.5001"/>
</g>
</g>
</svg>
